<svg xmlns="http://www.w3.org/2000/svg" viewBox="0 0 200 200" width="200" height="200">
  <defs>
    <radialGradient id="iBg2" cx="50%" cy="50%" r="50%">
      <stop offset="0%" stop-color="#FFFDE8"/>
      <stop offset="100%" stop-color="#FEF08A"/>
    </radialGradient>
  </defs>
  <circle cx="100" cy="100" r="90" fill="url(#iBg2)"/>
  <g transform="translate(100,95)">
    <ellipse cx="5" cy="0" rx="42" ry="33" fill="#FFE040" transform="rotate(-12)"/>
    <ellipse cx="5" cy="0" rx="40" ry="31" fill="none" stroke="#F0C800" stroke-width="1.5" transform="rotate(-12)"/>
    <ellipse cx="42" cy="-8" rx="8" ry="5" fill="#FFD830" transform="rotate(-12)"/>
    <ellipse cx="-10" cy="-10" rx="18" ry="10" fill="rgba(255,255,255,0.35)" transform="rotate(-20)"/>
    <circle cx="-40" cy="20" r="28" fill="#FFF3A0"/>
    <circle cx="-40" cy="20" r="26" fill="#FFE860"/>
    <circle cx="-40" cy="20" r="20" fill="#FFF0A0" opacity="0.5"/>
    <line x1="-40" y1="-5" x2="-40" y2="45" stroke="#FFDA40" stroke-width="1.2"/>
    <line x1="-62" y1="12" x2="-18" y2="28" stroke="#FFDA40" stroke-width="1.2"/>
    <line x1="-62" y1="28" x2="-18" y2="12" stroke="#FFDA40" stroke-width="1.2"/>
    <line x1="-58" y1="3" x2="-22" y2="37" stroke="#FFDA40" stroke-width="1.2"/>
    <line x1="-58" y1="37" x2="-22" y2="3" stroke="#FFDA40" stroke-width="1.2"/>
    <ellipse cx="28" cy="-32" rx="15" ry="6" fill="#5DAE5F" transform="rotate(-35,28,-32)"/>
    <ellipse cx="15" cy="-28" rx="12" ry="5" fill="#4D9E4F" transform="rotate(-55,15,-28)"/>
    <circle cx="20" cy="5" r="3" fill="rgba(255,255,255,0.6)"/>
    <circle cx="12" cy="15" r="2.5" fill="rgba(255,255,255,0.5)"/>
  </g>
</svg>
