<svg xmlns="http://www.w3.org/2000/svg" viewBox="0 0 200 200" width="200" height="200">
  <defs>
    <radialGradient id="iBg3" cx="50%" cy="50%" r="50%">
      <stop offset="0%" stop-color="#F0FDF4"/>
      <stop offset="100%" stop-color="#BBF7D0"/>
    </radialGradient>
  </defs>
  <circle cx="100" cy="100" r="90" fill="url(#iBg3)"/>
  <g transform="translate(100,100)">
    <!-- Bamboo stalks -->
    <rect x="-30" y="-55" width="14" height="110" rx="7" fill="#6BAF6B"/>
    <rect x="-30" y="-55" width="14" height="110" rx="7" fill="rgba(255,255,255,0.1)"/>
    <line x1="-30" y1="-20" x2="-16" y2="-20" stroke="#5A9F5A" stroke-width="2"/>
    <line x1="-30" y1="15" x2="-16" y2="15" stroke="#5A9F5A" stroke-width="2"/>
    <rect x="-8" y="-65" width="16" height="120" rx="8" fill="#5DAE5F"/>
    <rect x="-8" y="-65" width="16" height="120" rx="8" fill="rgba(255,255,255,0.08)"/>
    <line x1="-8" y1="-30" x2="8" y2="-30" stroke="#4D9E4F" stroke-width="2"/>
    <line x1="-8" y1="5" x2="8" y2="5" stroke="#4D9E4F" stroke-width="2"/>
    <line x1="-8" y1="35" x2="8" y2="35" stroke="#4D9E4F" stroke-width="2"/>
    <rect x="16" y="-45" width="12" height="100" rx="6" fill="#7DC07D"/>
    <line x1="16" y1="-10" x2="28" y2="-10" stroke="#6DB06D" stroke-width="2"/>
    <line x1="16" y1="25" x2="28" y2="25" stroke="#6DB06D" stroke-width="2"/>
    <!-- Leaves -->
    <path d="M8,-65 Q30,-80 50,-65 Q30,-60 8,-65" fill="#5DAE5F"/>
    <path d="M8,-65 Q-15,-80 -30,-60 Q-10,-60 8,-65" fill="#6DBF6D"/>
    <path d="M28,-45 Q50,-55 60,-38 Q45,-38 28,-45" fill="#7DC07D"/>
    <path d="M-16,-55 Q-40,-65 -50,-48 Q-35,-48 -16,-55" fill="#6BAF6B"/>
    <!-- Small leaf details -->
    <path d="M-30,-20 Q-50,-30 -55,-15 Q-40,-18 -30,-20" fill="#5DAE5F" opacity="0.7"/>
    <path d="M28,25 Q48,18 52,32 Q40,30 28,25" fill="#7DC07D" opacity="0.7"/>
  </g>
</svg>
