<svg xmlns="http://www.w3.org/2000/svg" viewBox="0 0 200 200" width="200" height="200">
  <defs>
    <radialGradient id="iBg1" cx="50%" cy="50%" r="50%">
      <stop offset="0%" stop-color="#F3E8FF"/>
      <stop offset="100%" stop-color="#E9D5FF"/>
    </radialGradient>
  </defs>
  <circle cx="100" cy="100" r="90" fill="url(#iBg1)"/>
  <g transform="translate(100,110)">
    <line x1="-25" y1="35" x2="-18" y2="-45" stroke="#8B7BAA" stroke-width="2.5"/>
    <circle cx="-18" cy="-45" r="5" fill="#B088D4"/><circle cx="-20" cy="-35" r="4.5" fill="#B088D4"/>
    <circle cx="-19" cy="-25" r="4" fill="#A078C8"/><circle cx="-20" cy="-15" r="3.5" fill="#A078C8"/>
    <line x1="0" y1="35" x2="2" y2="-55" stroke="#8B7BAA" stroke-width="2.5"/>
    <circle cx="2" cy="-55" r="6" fill="#B088D4"/><circle cx="1" cy="-45" r="5.5" fill="#B088D4"/>
    <circle cx="2" cy="-35" r="5" fill="#A078C8"/><circle cx="1" cy="-25" r="4.5" fill="#A078C8"/>
    <circle cx="2" cy="-15" r="4" fill="#9068B8"/>
    <line x1="25" y1="35" x2="20" y2="-40" stroke="#8B7BAA" stroke-width="2.5"/>
    <circle cx="20" cy="-40" r="5" fill="#B088D4"/><circle cx="21" cy="-30" r="4.5" fill="#A078C8"/>
    <circle cx="20" cy="-20" r="4" fill="#A078C8"/>
    <ellipse cx="-15" cy="15" rx="12" ry="4.5" fill="#6DAE6D" transform="rotate(-30,-15,15)"/>
    <ellipse cx="18" cy="20" rx="12" ry="4.5" fill="#5D9E5D" transform="rotate(25,18,20)"/>
    <ellipse cx="0" cy="28" rx="10" ry="3.5" fill="#6DAE6D" transform="rotate(-10,0,28)"/>
  </g>
</svg>
